<!--?xml version="1.0" standalone="no"?-->
              <svg id="sw-js-blob-svg" viewBox="0 0 100 100" xmlns="http://www.w3.org/2000/svg" version="1.1">
                    <defs> 
                        <linearGradient id="sw-gradient" x1="0" x2="1" y1="1" y2="0">
                            <stop id="stop1" stop-color="rgba(0, 0, 0, 1)" offset="0%"></stop>
                            <stop id="stop2" stop-color="rgba(251, 168, 31, 1)" offset="100%"></stop>
                        </linearGradient>
                    </defs>
                <path fill="none" d="M17.8,-31.2C23.5,-27.4,29,-23.7,31.5,-18.5C33.9,-13.3,33.3,-6.7,33.7,0.3C34.2,7.2,35.7,14.3,34,20.8C32.3,27.3,27.4,33.1,21.2,36.3C15,39.5,7.5,40,1.1,38.1C-5.3,36.2,-10.6,31.9,-17,28.9C-23.5,25.8,-31,24,-34.5,19.4C-38.1,14.8,-37.8,7.4,-36.2,0.9C-34.5,-5.5,-31.7,-11.1,-29.6,-18.3C-27.5,-25.5,-26.2,-34.3,-21.4,-38.6C-16.6,-42.9,-8.3,-42.6,-1.2,-40.6C6,-38.6,12,-34.9,17.8,-31.2Z" width="100%" height="100%" transform="translate(50 50)" style="transition: all 0.3s ease 0s;" stroke-width="1" stroke="rgba(0, 0, 0, 1)"></path>
              </svg>